<svg version="1.2" xmlns="http://www.w3.org/2000/svg" viewBox="0 0 960 960" width="960" height="960"><path fill-rule="evenodd" class="a" d="m480 880q-82 0-155-31.5-73-31.5-127.5-86-54.5-54.5-86-127.5-31.5-73-31.5-155 0-83 31.5-155.5 31.5-72.5 86-127 54.5-54.5 127.5-86 73-31.5 155-31.5 83 0 155.5 31.5 72.5 31.5 127 86 54.5 54.5 86 127 31.5 72.5 31.5 155.5 0 82-31.5 155-31.5 73-86 127.5-54.5 54.5-127 86-72.5 31.5-155.5 31.5zm0-82q26-36 45-75 19-39 31-83h-152q12 44 31 83 19 39 45 75zm-104-16q-18-33-31.5-68.5-13.5-35.5-22.5-73.5h-118q29 50 72.5 87 43.5 37 99.5 55zm208 0q56-18 99.5-55 43.5-37 72.5-87h-118q-9 38-22.5 73.5-13.5 35.5-31.5 68.5zm-414-222h136q-3-20-4.5-39.5-1.5-19.5-1.5-40.5 0-21 1.5-40.5 1.5-19.5 4.5-39.5h-136q-5 20-7.5 39.5-2.5 19.5-2.5 40.5 0 21 2.5 40.5 2.5 19.5 7.5 39.5zm216 0h188q3-20 4.5-39.5 1.5-19.5 1.5-40.5 0-21-1.5-40.5-1.5-19.5-4.5-39.5h-188q-3 20-4.5 39.5-1.5 19.5-1.5 40.5 0 21 1.5 40.5 1.5 19.5 4.5 39.5zm268 0h136q5-20 7.5-39.5 2.5-19.5 2.5-40.5 0-21-2.5-40.5-2.5-19.5-7.5-39.5h-136q3 20 4.5 39.5 1.5 19.5 1.5 40.5 0 21-1.5 40.5-1.5 19.5-4.5 39.5zm-16-240h118q-29-50-72.5-87-43.5-37-99.5-55 18 33 31.5 68.5 13.5 35.5 22.5 73.5zm-234 0h152q-12-44-31-83-19-39-45-75-26 36-45 75-19 39-31 83zm-200 0h118q9-38 22.5-73.5 13.5-35.5 31.5-68.5-56 18-99.5 55-43.5 37-72.5 87z"/></svg>